<svg id="Capa_1" enable-background="new 0 0 512 512" height="512" viewBox="0 0 512 512" width="512" xmlns="http://www.w3.org/2000/svg"><g><g><path d="m338.142 59.632h-259.34c-33.459 0-60.584 27.124-60.584 60.584v303.78c0 33.46 27.124 60.584 60.584 60.584h259.34c33.46 0 60.584-27.124 60.584-60.584v-303.78c0-33.459-27.124-60.584-60.584-60.584z" fill="#59c2e7"/><path d="m80.472 257.579c0-77.4 15.023-147.426 55.902-197.947h-57.572c-33.459 0-60.584 27.124-60.584 60.584v303.78c0 33.459 27.124 60.584 60.584 60.584h112.242c-66.937-50.572-110.572-133.398-110.572-227.001z" fill="#34b5e1"/><path d="m82.538 434.435c-8.169 0-14.815-6.646-14.815-14.816v-295.026c0-8.169 6.646-14.815 14.815-14.815h251.868c8.169 0 14.815 6.646 14.815 14.815v295.027c0 8.169-6.645 14.816-14.815 14.816h-251.868z" fill="#fff"/><path d="m288.372 39.144h-46.307c-1.042-17.651-15.681-31.644-33.593-31.644s-32.55 13.993-33.593 31.644h-46.307c-13.589 0-24.606 11.016-24.606 24.606v33.065c0 13.589 11.016 24.606 24.606 24.606h159.8c13.589 0 24.606-11.016 24.606-24.606v-33.065c0-13.59-11.017-24.606-24.606-24.606z" fill="#c7c5cb"/><g><g><g><ellipse cx="123.07" cy="197.97" fill="#ff9db0" rx="31.512" ry="25.094"/></g><g><ellipse cx="293.874" cy="197.97" fill="#ff9db0" rx="31.512" ry="25.094"/></g></g></g><circle cx="373.908" cy="384.626" fill="#ff889e" r="119.874"/><path d="m403.908 474.5c-66.205 0-119.874-53.669-119.874-119.874 0-25.44 7.931-49.024 21.446-68.428-31.093 21.657-51.446 57.663-51.446 98.428 0 66.205 53.669 119.874 119.874 119.874 40.765 0 76.771-20.353 98.428-51.447-19.405 13.516-42.989 21.447-68.428 21.447z" fill="#ff748f"/><path d="m427.844 359.944h-29.254v-29.254c0-9.095-7.373-16.468-16.468-16.468h-16.428c-9.095 0-16.468 7.373-16.468 16.468v29.254h-29.254c-9.095 0-16.468 7.373-16.468 16.468v16.428c0 9.095 7.373 16.468 16.468 16.468h29.254v29.254c0 9.095 7.373 16.468 16.468 16.468h16.428c9.095 0 16.468-7.373 16.468-16.468v-29.254h29.254c9.095 0 16.468-7.373 16.468-16.468v-16.428c-.001-9.095-7.373-16.468-16.468-16.468z" fill="#fff"/><path d="m80.472 257.579c0-54.293 7.403-104.95 25.923-147.802h-23.857c-8.169 0-14.815 6.646-14.815 14.815v295.027c0 8.169 6.646 14.816 14.815 14.816h57.78c-37.394-48.125-59.846-109.717-59.846-176.856z" fill="#e5e5e5"/></g><g><path d="m208.472 46.067c4.61 0 8.347-3.737 8.347-8.347s-3.737-8.347-8.347-8.347-8.347 3.737-8.347 8.347 3.737 8.347 8.347 8.347z"/><path d="m158.492 88.375h99.959c4.142 0 7.5-3.358 7.5-7.5s-3.358-7.5-7.5-7.5h-99.959c-4.142 0-7.5 3.358-7.5 7.5s3.358 7.5 7.5 7.5z"/><path d="m141.435 181.314c4.142 0 7.5-3.358 7.5-7.5v-12.882c0-4.142-3.358-7.5-7.5-7.5s-7.5 3.358-7.5 7.5v12.882c0 4.142 3.357 7.5 7.5 7.5z"/><path d="m275.509 181.314c4.142 0 7.5-3.358 7.5-7.5v-12.882c0-4.142-3.358-7.5-7.5-7.5s-7.5 3.358-7.5 7.5v12.882c0 4.142 3.358 7.5 7.5 7.5z"/><path d="m208.472 188.982c8.941 0 17.444-3.873 23.329-10.625 2.721-3.123 2.396-7.86-.727-10.582-3.122-2.721-7.86-2.397-10.582.727-3.035 3.482-7.416 5.479-12.02 5.479s-8.985-1.997-12.02-5.479c-2.722-3.123-7.459-3.448-10.582-.727-3.123 2.722-3.448 7.459-.727 10.582 5.885 6.753 14.387 10.625 23.329 10.625z"/><path d="m427.844 352.444h-21.754v-21.754c0-13.216-10.752-23.967-23.968-23.967h-16.428c-13.216 0-23.968 10.751-23.968 23.967v21.754h-21.754c-13.216 0-23.968 10.752-23.968 23.968v16.428c0 13.216 10.752 23.967 23.968 23.967h21.754v21.754c0 13.216 10.752 23.968 23.968 23.968h16.428c13.216 0 23.968-10.752 23.968-23.968v-21.754h21.754c13.216 0 23.967-10.751 23.967-23.967v-16.428c0-13.216-10.751-23.968-23.967-23.968zm8.967 40.396c0 4.944-4.022 8.967-8.967 8.967h-29.254c-4.142 0-7.5 3.358-7.5 7.5v29.254c0 4.945-4.023 8.968-8.968 8.968h-16.428c-4.945 0-8.968-4.023-8.968-8.968v-29.254c0-4.142-3.358-7.5-7.5-7.5h-29.254c-4.945 0-8.968-4.023-8.968-8.967v-16.428c0-4.945 4.023-8.968 8.968-8.968h29.254c4.142 0 7.5-3.358 7.5-7.5v-29.254c0-4.945 4.023-8.967 8.968-8.967h16.428c4.945 0 8.968 4.022 8.968 8.967v29.254c0 4.142 3.358 7.5 7.5 7.5h29.254c4.945 0 8.967 4.023 8.967 8.968z"/><path d="m123.07 268.581h170.804c4.142 0 7.5-3.358 7.5-7.5s-3.358-7.5-7.5-7.5h-170.804c-4.142 0-7.5 3.358-7.5 7.5s3.358 7.5 7.5 7.5z"/><path d="m204.232 367.543h-81.162c-4.142 0-7.5 3.358-7.5 7.5s3.358 7.5 7.5 7.5h81.163c4.142 0 7.5-3.358 7.5-7.5s-3.358-7.5-7.501-7.5z"/><path d="m406.226 261.411v-141.195c0-37.542-30.542-68.083-68.083-68.083h-19.849c-4.666-11.976-16.315-20.489-29.922-20.489h-39.853c-4.313-18.22-20.715-31.644-40.047-31.644s-35.734 13.424-40.046 31.644h-39.854c-13.607 0-25.256 8.513-29.922 20.489h-19.848c-37.542 0-68.083 30.542-68.083 68.083v198.926c0 4.142 3.358 7.5 7.5 7.5s7.5-3.358 7.5-7.5v-198.926c0-29.271 23.813-53.083 53.083-53.083h17.665c.151 29.844-.35 30.362.475 35.145h-14.404c-12.305 0-22.315 10.01-22.315 22.315v295.027c0 12.305 10.01 22.316 22.315 22.316h177.595c6.574 13.049 15.387 24.955 26.15 35.144h-207.481c-29.271 0-53.083-23.813-53.083-53.083v-74.854c0-4.142-3.358-7.5-7.5-7.5s-7.5 3.358-7.5 7.5v74.854c0 37.542 30.542 68.083 68.083 68.083h226.781c19.756 12.606 43.202 19.92 68.325 19.92 70.234 0 127.374-57.14 127.374-127.374 0-59.071-40.422-108.874-95.056-123.215zm-277.654-214.767h46.307c3.97 0 7.253-3.094 7.487-7.058.814-13.786 12.281-24.586 26.106-24.586 13.824 0 25.292 10.8 26.106 24.586.234 3.963 3.517 7.058 7.487 7.058h46.306c8.911 0 16.214 6.85 17.026 15.536.153 1.668.047-.379.08 34.635 0 9.424-7.683 17.106-17.106 17.106h-159.799c-9.376 0-17.106-7.641-17.106-17.106.034-35.623-.105-33.309.171-35.353 1.125-8.352 8.281-14.818 16.935-14.818zm125.157 380.292h-171.191c-4.034 0-7.315-3.282-7.315-7.316v-295.027c0-4.034 3.281-7.315 7.315-7.315h21.291c6.087 7.39 15.128 11.643 24.743 11.643 170.9 0 162.213.449 167.855-1.024 6.521-1.674 12.352-5.354 16.688-10.619h21.291c4.034 0 7.315 3.281 7.315 7.315v60.117c0 4.142 3.358 7.5 7.5 7.5s7.5-3.358 7.5-7.5v-60.117c0-12.305-10.01-22.315-22.315-22.315h-14.403c.827-4.798.325-5.579.475-35.145h17.665c29.271 0 53.083 23.813 53.083 53.083v138.21c-5.687-.776-11.842-1.175-17.318-1.175-5.828 0-11.564.402-17.187 1.164v-43.705c0-4.142-3.358-7.5-7.5-7.5s-7.5 3.358-7.5 7.5v46.653c-22.225 5.811-42.75 17.757-58.899 34.258h-159.752c-4.142 0-7.5 3.358-7.5 7.5s3.358 7.5 7.5 7.5h147.168c-12.909 18.087-21.201 39.822-23.21 62.843-.009.097-.018.195-.026.292-1.537 18.092.863 36.591 6.727 53.18zm120.179 70.064c-65.489 0-117.654-56.243-111.957-122.007.004-.045.008-.09.012-.135 5.074-57.855 53.617-102.606 111.945-102.606 61.862 0 112.374 50.317 112.374 112.374 0 61.963-50.411 112.374-112.374 112.374z"/></g></g></svg>