<svg height="480pt" viewBox="-9 0 480 480.00016" width="480pt" xmlns="http://www.w3.org/2000/svg"><path d="m128.175781 431.382812c29.871094-34.136718 66.335938-59.589843 90.914063-99 47.007812-75.367187 31.949218-172.3125-21.441406-240.550781-6.121094-7.832031-72.152344-80.632812-69.527344-83.832031h-1.023438c2.613282 3.199219-63.410156 76-69.53125 83.832031-53.390625 68.238281-68.445312 165.183594-21.4375 240.550781 24.574219 39.410157 61.039063 64.863282 90.910156 99zm0 0" fill="#5f9548"/><path d="m205.496094 102.574219c-36 104.625-113.960938 181.714843-171 226.921875.574218.960937 1.039062 1.945312 1.601562 2.886718 24.574219 39.410157 61.039063 64.863282 90.910156 99h1.136719c29.871094-34.136718 66.335938-59.589843 90.910157-99 44.632812-71.511718 33.296874-162.390624-13.558594-229.808593zm0 0" fill="#568741"/><path d="m220.992188 253.40625-11.792969-10.8125-74.101563 80.839844v-64.363282l69.941406-77.71875-11.886718-10.703124-58.054688 64.503906v-56.488282l46.398438-61.863281-12.800782-9.601562-33.597656 44.800781v-88h-16v88l-33.601562-44.800781-12.800782 9.601562 46.402344 61.863281v56.488282l-58.058594-64.503906-11.886718 10.703124 69.945312 77.71875v64.363282l-74.105468-80.839844-11.792969 10.8125 85.898437 93.707031v132.886719h16v-132.886719zm0 0" fill="#7eb457"/><path d="m450.128906 443.03125-59.03125-59.03125-24 24 59.03125 59.03125c6.625 6.628906 17.371094 6.628906 24 0 6.625-6.625 6.625-17.371094 0-24zm0 0" fill="#f35244"/><path d="m415.097656 320c0 61.855469-50.144531 112-112 112-61.855468 0-112-50.144531-112-112s50.144532-112 112-112c61.855469 0 112 50.144531 112 112zm0 0" fill="#f35244"/><path d="m383.097656 320c0 44.183594-35.820312 80-80 80-44.183594 0-80-35.816406-80-80s35.816406-80 80-80c44.179688 0 80 35.816406 80 80zm0 0" fill="#48add9"/><path d="m367.097656 320c0 35.347656-28.65625 64-64 64-35.347656 0-64-28.652344-64-64s28.652344-64 64-64c35.34375 0 64 28.652344 64 64zm0 0" fill="#4db7e5"/><path d="m263.097656 320h-16c.035156-30.914062 25.085938-55.964844 56-56v16c-22.082031.027344-39.976562 17.917969-40 40zm0 0" fill="#79c6e8"/><path d="m401.296875 394.199219-10.199219-10.199219-24 24 10.199219 10.199219c9.164063-6.742188 17.257813-14.832031 24-24zm0 0" fill="#de4132"/><path d="m455.097656 128c.0625-62.304688-47.570312-114.292969-109.640625-119.671875-62.074219-5.382813-117.9375 37.640625-128.59375 99.027344s27.441407 120.71875 87.695313 136.574219l-1.460938 60.070312 45.726563-56.800781c60.558593-6.972657 106.265625-58.242188 106.273437-119.199219zm0 0" fill="#ffb531"/><path d="m383.097656 168-48 24-48-24v-87.992188l48-24 48 24zm0 0" fill="#568741"/><g fill="#5f9548"><path d="m391.097656 80c-.027344-.324219-.074218-.644531-.136718-.960938l12.574218-8.375-8.878906-13.320312-16.703125 11.144531-34.855469-17.433593v-19.054688h-16v19.054688l-34.859375 17.433593-16.703125-11.144531-8.878906 13.320312 12.574219 8.375c-.0625.316407-.109375.636719-.132813.960938v87.054688l-19.578125 9.785156 7.152344 14.320312 24.425781-12.214844 36 18v19.054688h16v-19.054688l36-18 24.421875 12.253907 7.152344-14.320313-19.574219-9.824218zm-96 4.953125 40-20 40 20v78.101563l-40 20-40-20zm0 0"/><path d="m247.097656 136h16v16h-16zm0 0"/><path d="m247.097656 96h16v16h-16zm0 0"/><path d="m406.097656 102h16v16h-16zm0 0"/><path d="m359.097656 200h16v16h-16zm0 0"/><path d="m287.097656 200h16v16h-16zm0 0"/></g><path d="m343.097656 144h16v16h-16zm0 0" fill="#43752e"/><path d="m311.097656 88h16v16h-16zm0 0" fill="#43752e"/><path d="m343.097656 112h16v-16h-16v16h-16v16h16zm0 0" fill="#43752e"/><path d="m311.097656 144h16v16h-16zm0 0" fill="#43752e"/><path d="m97.496094 390.015625c-20.753906-18.210937-39.097656-38.992187-54.59375-61.847656-42.492188-68.121094-34.078125-161.105469 20.992187-231.425781 1.539063-1.988282 8.210938-9.597657 15.9375-18.398438 25.511719-29.03125 40-45.808594 47.761719-56 7.863281 10.335938 22.582031 27.390625 48.664062 57.046875 7.285157 8.296875 13.597657 15.464844 15.101563 17.394531l12.578125-9.890625c-1.707031-2.167969-6.800781-8-15.671875-18.0625-14.351563-16.335937-47.371094-53.878906-52.25-62.167969-.652344-3.84375-3.980469-6.66015575-7.878906-6.664062h-1.039063c-3.902344 0-7.234375 2.8125-7.890625 6.65625-4.796875 8.105469-36.078125 43.726562-51.390625 61.152344-9.398437 10.695312-14.808594 16.863281-16.535156 19.09375-59.199219 75.578125-68 175.929687-21.929688 249.730468 16.203126 23.988282 35.394532 45.820313 57.105469 64.96875 11.039063 10.496094 22.238281 21.414063 32.640625 33.007813v45.390625h16v-44.28125c10.574219-11.949219 22.199219-23.132812 33.488282-33.941406 4.285156-4.113282 8.574218-8.21875 12.796874-12.378906l-11.199218-11.421876c-4.199219 4.113282-8.449219 8.175782-12.695313 12.246094-7.449219 7.128906-14.992187 14.53125-22.398437 22.152344v-65.261719l40.941406-44.664062-11.792969-10.808594-29.140625 31.792969v-64.363282l69.941406-77.71875-11.886718-10.703124-58.054688 64.503906v-56.488282l46.398438-61.863281-12.800782-9.601562-33.597656 44.800781v-88h-16v88l-33.601562-44.800781-12.800782 9.601562 46.402344 61.863281v56.488282l-58.058594-64.503906-11.886718 10.703124 69.945312 77.71875v64.363282l-74.105468-80.839844-11.792969 10.8125 85.898437 93.707031v64.175781c-7.160156-7.289062-14.402344-14.417968-21.601562-21.273437zm0 0"/><path d="m403.664062 385.246094c26.710938-40.941406 25.828126-94.015625-2.230468-134.046875l-13.105469 9.191406c25.550781 36.5 24.964844 85.230469-1.457031 121.105469-19.582032 26.679687-50.679688 42.457031-83.773438 42.503906-42.75-.019531-81.132812-26.191406-96.761718-65.984375-15.625-39.789063-5.3125-85.089844 26-114.191406l-10.839844-11.746094c-36.140625 33.574219-48.054688 85.84375-30.035156 131.761719 18.023437 45.917968 62.308593 76.132812 111.636718 76.160156 23.179688.035156 45.867188-6.722656 65.253906-19.433594l52.128907 52.128906c4.671875 4.695313 11.03125 7.324219 17.65625 7.304688 6.621093.007812 12.972656-2.621094 17.65625-7.304688 4.683593-4.679687 7.308593-11.035156 7.304687-17.65625.019532-6.625-2.609375-12.980468-7.304687-17.65625zm40.800782 76.136718c-3.570313 3.34375-9.121094 3.34375-12.6875 0l-50.441406-50.453124c4.542968-3.90625 8.785156-8.144532 12.6875-12.691407l50.457031 50.457031c1.683593 1.679688 2.625 3.964844 2.617187 6.34375-.003906 2.378907-.945312 4.65625-2.617187 6.34375zm0 0"/><path d="m238.511719 260.320312c-15.070313 16.214844-23.4375 37.542969-23.414063 59.679688 0 1.96875.078125 3.847656.175782 5.894531 3 47.492188 43.214843 83.996094 90.773437 82.398438 47.558594-1.59375 85.234375-40.707031 85.050781-88.292969.0625-19.355469-6.324218-38.179688-18.152344-53.496094l-12.679687 9.753906c9.671875 12.523438 14.890625 27.917969 14.832031 43.742188.175782 38.917969-30.605468 70.933594-69.503906 72.285156-38.894531 1.347656-71.824219-28.457031-74.34375-67.292968-.082031-1.640626-.152344-3.28125-.152344-4.992188.082032-26.972656 15.160156-51.65625 39.117188-64.046875l-7.320313-14.226563c-9.160156 4.707032-17.417969 11.003907-24.382812 18.59375zm0 0"/><path d="m263.097656 320c-.050781-15.167969 8.523438-29.046875 22.109375-35.792969l-7.199219-14.304687c-19 9.453125-30.984374 28.875-30.910156 50.097656zm0 0"/><path d="m335.097656 0c-63.132812-.0429688-116.855468 45.972656-126.511718 108.359375s27.640624 122.492187 87.832031 141.535156l-1.320313 53.914063c-.085937 3.429687 2.027344 6.527344 5.246094 7.707031 3.222656 1.179687 6.835938.171875 8.984375-2.5l43.703125-54.335937c66.359375-9.601563 114.0625-68.789063 109.355469-135.671876-4.710938-66.886718-60.238281-118.800781-127.289063-119.007812zm12.796875 239.199219c-2.089843.238281-4.007812 1.292969-5.328125 2.9375l-30.917968 38.398437.886718-36.445312c.09375-3.707032-2.375-6.992188-5.957031-7.9375-55.792969-14.839844-91.121094-69.710938-81.539063-126.640625 9.585938-56.933594 60.933594-97.210938 118.507813-92.964844 57.578125 4.25 102.457031 51.625 103.585937 109.347656 1.125 57.722657-41.871093 106.8125-99.238281 113.304688zm0 0"/><path d="m391.097656 80c-.027344-.328125-.070312-.652344-.136718-.976562l12.566406-8.359376-8.863282-13.328124-16.734374 11.136718-34.832032-17.417968v-19.054688h-16v19.054688l-34.832031 17.417968-16.738281-11.136718-8.863282 13.328124 12.566407 8.359376c-.0625.324218-.109375.648437-.132813.976562v87.054688l-19.578125 9.785156 7.152344 14.320312 24.425781-12.214844 36 18v19.054688h16v-19.054688l36-18 24.421875 12.253907 7.152344-14.320313-19.574219-9.824218zm-16 83.054688-40 20-40-20v-78.101563l40-20 40 20zm0 0"/><path d="m343.097656 144h16v16h-16zm0 0"/><path d="m247.097656 136h16v16h-16zm0 0"/><path d="m247.097656 96h16v16h-16zm0 0"/><path d="m311.097656 88h16v16h-16zm0 0"/><path d="m327.097656 128h16v-16h16v-16h-16v16h-16zm0 0"/><path d="m311.097656 144h16v16h-16zm0 0"/><path d="m406.097656 102h16v16h-16zm0 0"/><path d="m359.097656 200h16v16h-16zm0 0"/><path d="m287.097656 200h16v16h-16zm0 0"/></svg>